<svg width="20" height="20" viewBox="0 0 20 20" fill="none" xmlns="http://www.w3.org/2000/svg">
    <path fill-rule="evenodd" clip-rule="evenodd"
        d="M10 9.41074L7.93763 7.34835C7.77491 7.18563 7.51109 7.18563 7.34837 7.34835C7.18565 7.51107 7.18565 7.77488 7.34837 7.9376L9.41077 10L7.34837 12.0624C7.18565 12.2251 7.18565 12.4889 7.34837 12.6516C7.51109 12.8144 7.77491 12.8144 7.93763 12.6516L10 10.5893L12.0624 12.6516C12.2251 12.8144 12.489 12.8144 12.6517 12.6516C12.8144 12.4889 12.8144 12.2251 12.6517 12.0624L10.5893 10L12.6517 7.9376C12.8144 7.77488 12.8144 7.51107 12.6517 7.34835C12.489 7.18563 12.2251 7.18563 12.0624 7.34835L10 9.41074ZM10 17.0833C6.088 17.0833 2.91669 13.912 2.91669 10C2.91669 6.08798 6.088 2.91666 10 2.91666C13.912 2.91666 17.0834 6.08798 17.0834 10C17.0834 13.912 13.912 17.0833 10 17.0833Z"
        fill="#A6A29F" />
</svg>