<svg width="24" height="24" viewBox="0 0 24 24" fill="none" xmlns="http://www.w3.org/2000/svg">
<path d="M10.5 11H9.5C9.22386 11 9 11.2239 9 11.5V16.5C9 16.7761 9.22386 17 9.5 17H10.5C10.7761 17 11 16.7761 11 16.5V11.5C11 11.2239 10.7761 11 10.5 11Z" fill="#EA1D2C"/>
<path d="M14.5 11H13.5C13.2239 11 13 11.2239 13 11.5V16.5C13 16.7761 13.2239 17 13.5 17H14.5C14.7761 17 15 16.7761 15 16.5V11.5C15 11.2239 14.7761 11 14.5 11Z" fill="#EA1D2C"/>
<path d="M19 7H15V5C15 4.73478 14.8946 4.48043 14.7071 4.29289C14.5196 4.10536 14.2652 4 14 4H10C9.73478 4 9.48043 4.10536 9.29289 4.29289C9.10536 4.48043 9 4.73478 9 5V7H5C4.73478 7 4.48043 7.10536 4.29289 7.29289C4.10536 7.48043 4 7.73478 4 8C4 8.26522 4.10536 8.51957 4.29289 8.70711C4.48043 8.89464 4.73478 9 5 9H19C19.2652 9 19.5196 8.89464 19.7071 8.70711C19.8946 8.51957 20 8.26522 20 8C20 7.73478 19.8946 7.48043 19.7071 7.29289C19.5196 7.10536 19.2652 7 19 7ZM11 6H13V7H11V6Z" fill="#EA1D2C"/>
<path d="M17 18H7V10H5V18C5 18.5304 5.21071 19.0391 5.58579 19.4142C5.96086 19.7893 6.46957 20 7 20H17C17.5304 20 18.0391 19.7893 18.4142 19.4142C18.7893 19.0391 19 18.5304 19 18V10H17V18Z" fill="#EA1D2C"/>
</svg>
