<svg width="88" height="33" viewBox="0 0 88 33" fill="none" xmlns="http://www.w3.org/2000/svg">
<path d="M71.6527 26.1407C70.4159 26.1407 69.3634 25.909 68.4953 25.4455C67.6509 24.982 67.0515 24.3331 66.6971 23.4988C66.3427 22.6645 66.2886 21.7144 66.5347 20.6484C66.9306 18.9335 67.8382 17.5778 69.2574 16.5813C70.7058 15.5616 72.6049 14.9591 74.9548 14.7737L82.1194 14.1827L81.2526 17.937L74.7106 18.4584C73.6665 18.5511 72.8929 18.7597 72.3899 19.0841C71.9107 19.4085 71.6122 19.8257 71.4945 20.3355C71.3768 20.8453 71.5302 21.2625 71.9548 21.5869C72.3847 21.8882 72.9802 22.0388 73.7413 22.0388C74.5737 22.0388 75.3711 21.8303 76.1333 21.4131C76.9193 20.996 77.5894 20.463 78.1436 19.8141C78.7031 19.142 79.0684 18.4352 79.2396 17.6936L79.9057 14.8084C80.1358 13.8119 79.9689 12.9892 79.4052 12.3404C78.8415 11.6915 78.0126 11.367 76.9186 11.367C75.8959 11.367 75.0165 11.6219 74.2804 12.1318C73.5496 12.6184 73.0552 13.163 72.7972 13.7656H72.4048L68.5303 12.9313C69.2509 11.3554 70.4359 10.0345 72.0852 8.96848C73.7584 7.90246 75.6771 7.36945 77.8415 7.36945C80.4577 7.36945 82.3492 8.08785 83.5158 9.52467C84.7063 10.9615 84.9993 12.9892 84.3947 15.6079L82.0914 25.5845H77.9173L79.1051 20.4398H80.8532C80.3324 21.4595 79.5898 22.4096 78.6254 23.2902C77.6901 24.1477 76.6258 24.8429 75.4325 25.3759C74.2445 25.8858 72.9846 26.1407 71.6527 26.1407Z" fill="#EA1D2C"/>
<path d="M58.1276 19.8836C57.0234 19.8836 56.0518 19.7434 55.2126 19.463C54.8949 19.3568 54.5962 19.2305 54.3164 19.0841C53.6967 18.7598 53.1863 18.3626 52.7851 17.8924C52.5269 17.5899 52.314 17.2571 52.1463 16.8941C51.7235 15.944 51.6539 14.8548 51.9375 13.6265C52.221 12.3983 52.7909 11.3207 53.6471 10.3937C54.5086 9.44357 55.5717 8.70199 56.8364 8.16898C58.1011 7.63597 59.4945 7.36946 61.0167 7.36946C62.5389 7.36946 63.8092 7.63597 64.8278 8.16898C65.8464 8.70199 66.5671 9.44357 66.9899 10.3937C67.418 11.3207 67.4903 12.3983 67.2068 13.6265C66.9232 14.8548 66.3507 15.944 65.4891 16.8941C64.633 17.8211 63.5725 18.5511 62.3079 19.0841C61.0432 19.6171 59.6497 19.8836 58.1276 19.8836ZM65.6967 10.7413L62.9808 9.52468C63.2269 8.45866 63.6603 7.50851 64.281 6.67423C64.9071 5.81678 65.6449 5.14473 66.4946 4.65806C67.3443 4.1714 68.221 3.92807 69.1248 3.92807C69.4577 3.92807 69.7405 3.93966 69.973 3.96283C70.2346 3.96283 70.4076 3.98601 70.4921 4.03236L69.6012 7.89089L69.3426 8.23851C69.1208 8.16898 68.8196 8.13422 68.4391 8.13422C67.7256 8.13422 67.1343 8.37755 66.6652 8.86421C66.196 9.35088 65.8732 9.97659 65.6967 10.7413Z" fill="#EA1D2C"/>
<path d="M48.6776 31.1464C49.8906 32.0734 51.7339 32.5368 54.2074 32.5368H55.9912C58.4172 32.5368 60.4614 32.027 62.1238 31.0073C63.7863 29.9877 64.8128 28.632 65.2034 26.9402C65.5511 25.4339 65.2704 24.2288 64.3612 23.325C63.4758 22.4212 62.1174 21.9693 60.2861 21.9693H56.1477C55.3628 21.9693 54.8187 21.8535 54.5155 21.6217C54.2413 21.3668 54.1524 21.0308 54.2487 20.6136C54.3236 20.2892 54.565 19.9647 54.9729 19.6403C55.0505 19.5751 55.1304 19.516 55.2126 19.463C54.8949 19.3568 54.5962 19.2305 54.3164 19.0841C53.6967 18.7598 53.1863 18.3626 52.7851 17.8924C52.2341 18.2018 51.7444 18.5527 51.3161 18.9451C50.561 19.6403 50.0711 20.4746 49.8464 21.4479C49.6645 22.2358 49.7391 22.9427 50.0703 23.5684L48.9894 24.5417C48.1891 25.3296 47.6632 26.2682 47.4118 27.3574C47.0373 28.9796 47.4592 30.2426 48.6776 31.1464Z" fill="#EA1D2C"/>
<path d="M39.1134 26.1407C37.2106 26.1407 35.6248 25.7467 34.3559 24.9588C33.1108 24.1709 32.2471 23.0701 31.7648 21.6565C31.2825 20.2428 31.2554 18.609 31.6834 16.7551C32.1114 14.9011 32.881 13.2673 33.9923 11.8537C35.1273 10.4401 36.4874 9.33927 38.0725 8.55134C39.6577 7.76341 41.3778 7.36945 43.233 7.36945C45.0644 7.36945 46.5643 7.775 47.7327 8.5861C48.9011 9.39721 49.6973 10.5328 50.1214 11.9927C50.5454 13.4527 50.5327 15.156 50.0833 17.1027L49.8907 17.937L49.2351 18.4584H33.4307L34.2894 14.7389H37.0695H45.9023H48.6668L45.7744 15.6775C45.8502 15.3493 45.8928 15.0365 45.9023 14.7389C45.9176 14.2588 45.8467 13.8185 45.6896 13.418C45.4588 12.7691 45.0506 12.2708 44.4649 11.9232C43.9084 11.5524 43.2258 11.367 42.4171 11.367C41.5133 11.367 40.6592 11.564 39.8547 11.958C39.0556 12.3288 38.3763 12.8502 37.8168 13.5222C37.5133 13.8936 37.2642 14.2992 37.0695 14.7389C36.924 15.0674 36.809 15.4151 36.7243 15.7817L36.299 17.6241C36.1117 18.4352 36.1519 19.1884 36.4195 19.8836C36.7163 20.5557 37.1732 21.1003 37.7904 21.5174C38.4314 21.9345 39.1801 22.1431 40.0363 22.1431C40.7974 22.1431 41.5855 21.923 42.4007 21.4826C43.2158 21.0423 43.9112 20.4514 44.4867 19.7098H44.9148L48.4067 21.2741C47.3056 22.8499 45.9452 24.055 44.3256 24.8893C42.7297 25.7236 40.9923 26.1407 39.1134 26.1407Z" fill="#EA1D2C"/>
<path d="M37.0695 14.7389H45.9023C45.9176 14.2588 45.8467 13.8185 45.6896 13.418C45.4588 12.7691 45.0506 12.2708 44.4649 11.9232C43.9084 11.5524 43.2258 11.367 42.4171 11.367C41.5133 11.367 40.6592 11.564 39.8547 11.958C39.0556 12.3288 38.3763 12.8502 37.8168 13.5222C37.5133 13.8936 37.2642 14.2992 37.0695 14.7389Z" fill="#EA1D2C"/>
<path d="M17.5261 26.1407C15.885 26.1407 14.4895 25.7467 13.3395 24.9588C12.1949 24.1477 11.3906 23.0469 10.9268 21.6565C10.492 20.2428 10.486 18.6206 10.9087 16.7898C11.3367 14.9359 12.0944 13.3021 13.1819 11.8885C14.2931 10.4748 15.6056 9.37404 17.1194 8.58611C18.6386 7.77501 20.2187 7.36945 21.8598 7.36945C23.2393 7.36945 24.4 7.64755 25.3418 8.20373C26.2837 8.75992 27.0005 9.46674 27.4923 10.3242C27.9894 11.1585 28.2499 12.0391 28.2737 12.9661L26.5082 20.6136C26.0617 21.5174 25.3946 22.398 24.5069 23.2555C23.6245 24.0898 22.584 24.785 21.3853 25.3412C20.192 25.8742 18.9056 26.1407 17.5261 26.1407ZM19.3454 21.9693C20.3205 21.9693 21.2157 21.7492 22.0309 21.3088C22.846 20.8685 23.5468 20.2544 24.133 19.4665C24.7192 18.6786 25.13 17.7748 25.3655 16.7551C25.6062 15.7122 25.6127 14.8084 25.3849 14.0437C25.1625 13.2557 24.7454 12.6416 24.1335 12.2013C23.5216 11.761 22.7281 11.5408 21.753 11.5408C20.8016 11.5408 19.9065 11.761 19.0675 12.2013C18.2524 12.6416 17.5517 13.2557 16.9654 14.0437C16.3845 14.8084 15.9737 15.7122 15.7329 16.7551C15.4975 17.7748 15.491 18.6786 15.7135 19.4665C15.9359 20.2544 16.353 20.8685 16.9649 21.3088C17.6005 21.7492 18.394 21.9693 19.3454 21.9693ZM23.5411 25.5845L24.6726 20.6831L26.6498 16.7551L26.1296 12.827L28.9626 0.556186L33.8002 0L33.843 0.278093L28.0006 25.5845H23.5411Z" fill="#EA1D2C"/>
<path d="M2.59089 25.5845L6.66776 7.92564H11.484L7.40714 25.5845H2.59089ZM9.60735 5.7009C8.79869 5.7009 8.17316 5.4228 7.73075 4.86662C7.28834 4.31043 7.15809 3.63838 7.34 2.85045C7.51656 2.08569 7.95445 1.42522 8.65367 0.869038C9.35289 0.312853 10.1068 0.0347595 10.9155 0.0347595C11.7003 0.0347595 12.314 0.312853 12.7564 0.869038C13.1988 1.42522 13.3317 2.08569 13.1552 2.85045C12.9733 3.63838 12.5327 4.31043 11.8335 4.86662C11.1343 5.4228 10.3922 5.7009 9.60735 5.7009Z" fill="#EA1D2C"/>
</svg>
