<svg width="81" height="42" viewBox="0 0 81 42" fill="none" xmlns="http://www.w3.org/2000/svg">
    <path d="M0.00012207 23.2759L5.28341 7.21973H9.55031L4.26703 23.2759H0.00012207Z" fill="#EA1D2C" />
    <path fill-rule="evenodd" clip-rule="evenodd"
        d="M11.2812 22.707C12.2255 23.4234 13.4246 23.7816 14.8785 23.7816C16.1006 23.7816 17.2655 23.5393 18.3732 23.0547C19.269 22.6482 20.0828 22.1601 20.8146 21.5903L20.26 23.2759L24.2108 23.2759L31.8697 0L27.6006 0.00676065L24.7598 8.64003C24.4314 8.19234 24.0116 7.8032 23.5005 7.47259C22.7187 6.96688 21.7167 6.71403 20.4946 6.71403C19.0407 6.71403 17.6024 7.08278 16.1797 7.82027C14.764 8.53669 13.497 9.53756 12.3787 10.8229C11.2815 12.1082 10.4556 13.5938 9.90088 15.2794C9.35311 16.9441 9.20493 18.419 9.45627 19.7044C9.73561 20.9686 10.3439 21.9695 11.2812 22.707ZM19.3267 19.3883C18.5629 19.7887 17.749 19.9888 16.8851 19.9888C16.0422 19.9888 15.3601 19.7887 14.8386 19.3883C14.3382 18.988 14.0268 18.4296 13.9043 17.7132C13.7818 16.9967 13.8731 16.175 14.1782 15.2478C14.4902 14.2996 14.9397 13.4779 15.5267 12.7825C16.1207 12.0661 16.7996 11.5077 17.5634 11.1074C18.3484 10.707 19.1623 10.5068 20.0051 10.5068C20.869 10.5068 21.5512 10.707 22.0516 11.1074C22.552 11.5077 22.8634 12.0661 22.9859 12.7825C23.1153 13.4779 23.024 14.2996 22.712 15.2478C22.4069 16.175 21.9574 16.9967 21.3635 17.7132C20.7695 18.4296 20.0906 18.988 19.3267 19.3883Z"
        fill="#EA1D2C" />
    <path fill-rule="evenodd" clip-rule="evenodd"
        d="M31.6043 22.707C32.6539 23.4234 34.0216 23.7816 35.7073 23.7816C37.3719 23.7816 38.9506 23.4024 40.4434 22.6438C41.9573 21.8852 43.2766 20.7895 44.4012 19.3567L41.4557 17.9344H41.0764C40.4964 18.6087 39.8244 19.146 39.0605 19.5463C38.2966 19.9467 37.5776 20.1469 36.9033 20.1469C36.1447 20.1469 35.5013 19.9572 34.9729 19.5779C34.4655 19.1987 34.1122 18.7035 33.9129 18.0924C33.8019 17.6826 33.7778 17.2507 33.8408 16.7966H45.4017L46.0318 16.3225L46.2814 15.5639C46.8638 13.7939 47.0363 12.2452 46.7988 10.9177C46.5613 9.59024 45.9634 8.55776 45.005 7.82027C44.0466 7.08278 42.7562 6.71403 41.1337 6.71403C39.4902 6.71403 37.9289 7.07224 36.45 7.78866C34.9711 8.50508 33.6619 9.50595 32.5226 10.7913C31.4043 12.0766 30.5678 13.5621 30.0131 15.2478C29.4585 16.9335 29.3278 18.419 29.6213 19.7044C29.9148 20.9897 30.5758 21.9906 31.6043 22.707ZM34.9757 13.4146H42.801C42.86 12.9782 42.8389 12.5778 42.7376 12.2136C42.5946 11.6236 42.2801 11.1706 41.7941 10.8545C41.3361 10.5174 40.7489 10.3488 40.0325 10.3488C39.2318 10.3488 38.4565 10.5279 37.7065 10.8861C36.9634 11.2232 36.3122 11.6973 35.7529 12.3084C35.4489 12.6461 35.1898 13.0148 34.9757 13.4146Z"
        fill="#EA1D2C" />
    <path fill-rule="evenodd" clip-rule="evenodd"
        d="M45.3984 28.333C46.3853 29.1758 47.9745 29.5973 50.1659 29.5973H51.7461C53.8954 29.5973 55.7547 29.1337 57.324 28.2066C58.8934 27.2794 59.9311 26.0468 60.4373 24.5086C60.8879 23.139 60.7533 22.0433 60.0334 21.2215C59.3345 20.3997 58.1738 19.9888 56.5513 19.9888H52.885C52.1896 19.9888 51.7186 19.8835 51.4718 19.6728C51.2531 19.441 51.2062 19.1355 51.331 18.7562C51.428 18.4612 51.6726 18.1662 52.0647 17.8712C52.1395 17.8119 52.2159 17.7581 52.2938 17.7099C53.0107 17.9649 53.8583 18.0924 54.8365 18.0924C56.1851 18.0924 57.4448 17.8501 58.6157 17.3655C59.7866 16.8809 60.7952 16.2171 61.6414 15.3743C62.4946 14.5103 63.1049 13.52 63.4724 12.4032C63.8399 11.2865 63.8778 10.3067 63.5862 9.46381C63.4671 9.1022 63.2982 8.77382 63.0797 8.47866C63.1916 8.33338 63.3128 8.19819 63.4433 8.07311C63.905 7.63062 64.4519 7.40938 65.084 7.40938C65.4211 7.40938 65.6847 7.44098 65.8746 7.5042L66.1366 7.18813L67.291 3.67979C67.2206 3.63764 67.0695 3.61657 66.8377 3.61657C66.634 3.59551 66.3846 3.58497 66.0896 3.58497C65.2889 3.58497 64.4891 3.80621 63.6903 4.24871C62.8915 4.6912 62.1742 5.30227 61.5384 6.0819C61.2938 6.37695 61.0726 6.68794 60.8749 7.01487C60.2129 6.81431 59.4481 6.71403 58.5806 6.71403C57.232 6.71403 55.9723 6.95635 54.8014 7.44099C53.6306 7.92562 52.6185 8.5999 51.7653 9.46381C50.9191 10.3067 50.3122 11.2865 49.9447 12.4032C49.5773 13.52 49.5358 14.5103 49.8205 15.3743C49.9347 15.7043 50.0918 16.0068 50.2919 16.2819C49.7744 16.5633 49.3073 16.8823 48.8907 17.2391C48.156 17.8712 47.643 18.6298 47.3518 19.5147C47.1161 20.2312 47.1153 20.8738 47.3496 21.4427C47.3581 21.4618 47.3669 21.4808 47.3759 21.4996C46.9853 21.7468 46.6266 22.0229 46.2998 22.3277C45.5162 23.0442 44.9615 23.8975 44.6356 24.8879C44.1503 26.3629 44.4045 27.5112 45.3984 28.333ZM49.4529 23.0767C49.1146 23.4288 48.8775 23.8113 48.7416 24.2241C48.5822 24.7088 48.6122 25.1618 48.8317 25.5832C49.0443 26.0257 49.6564 26.247 50.6678 26.247H52.9118C53.9654 26.247 54.7796 26.11 55.3543 25.8361C55.9502 25.5622 56.3313 25.1723 56.4977 24.6666C56.6502 24.2031 56.575 23.8554 56.272 23.6236C55.969 23.3918 55.5014 23.2759 54.8693 23.2759H51.1397C50.5113 23.2759 49.949 23.2095 49.4529 23.0767ZM58.1594 14.1416C57.5081 14.5841 56.761 14.8053 55.9182 14.8053C55.0753 14.8053 54.4633 14.5841 54.0821 14.1416C53.722 13.6991 53.6598 13.1197 53.8956 12.4032C54.1313 11.6868 54.5748 11.1074 55.2261 10.6649C55.8985 10.2224 56.6561 10.0011 57.499 10.0011C58.3418 10.0011 58.9433 10.2224 59.3034 10.6649C59.6846 11.1074 59.7573 11.6868 59.5216 12.4032C59.2858 13.1197 58.8318 13.6991 58.1594 14.1416Z"
        fill="#EA1D2C" />
    <path fill-rule="evenodd" clip-rule="evenodd"
        d="M65.1831 23.1495C65.9083 23.5709 66.8188 23.7816 67.9145 23.7816C69.0945 23.7816 70.2348 23.5499 71.3355 23.0863C72.3554 22.64 73.2914 22.0688 74.1436 21.3724L73.5172 23.2759H77.2152L80.2 14.2048C80.9835 11.8238 80.9159 9.98005 79.9973 8.67364C79.0997 7.36723 77.4919 6.71403 75.1741 6.71403C73.2566 6.71403 71.5063 7.19867 69.9231 8.16794C68.361 9.13721 67.1861 10.3383 66.3986 11.7711L69.7521 12.5297H70.0998C70.3854 11.9818 70.875 11.4866 71.5684 11.0441C72.2688 10.5806 73.072 10.3488 73.9781 10.3488C74.9474 10.3488 75.651 10.6438 76.089 11.2338C76.4593 11.7326 76.5665 12.3444 76.4106 13.0691L71.9159 13.4463C69.8165 13.6148 68.077 14.1627 66.6973 15.0898C65.3456 15.9959 64.4132 17.2285 63.9001 18.7878C63.5812 19.7571 63.5392 20.621 63.7742 21.3795C64.0093 22.1381 64.4789 22.7281 65.1831 23.1495ZM75.2931 16.4768L71.3508 16.7966C70.417 16.8808 69.7119 17.0705 69.2355 17.3655C68.7803 17.6605 68.4763 18.0398 68.3238 18.5033C68.1713 18.9669 68.2677 19.3462 68.6132 19.6412C68.9655 19.9151 69.4788 20.052 70.1531 20.052C70.8906 20.052 71.6167 19.8624 72.3315 19.4831C73.0674 19.1038 73.7115 18.6192 74.2638 18.0292C74.7184 17.5326 75.0615 17.0151 75.2931 16.4768Z"
        fill="#EA1D2C" />
    <path d="M7.65264 0.00480493L6.22107 4.35543H10.488L11.9195 0.00480493H7.65264Z" fill="#EA1D2C" />
    <path
        d="M50.7329 41.9163C57.2732 42.4512 63.7632 40.4068 68.8162 36.2202L68.903 36.3105L70.802 41.7356L73.6986 27.8106H60.5881L64.9279 31.1562C61.0405 34.8638 53.8936 37.5761 47.93 36.8523C42.0525 36.2202 37.2603 32.1556 35.271 27.8106H34.9099C35.9944 34.7727 42.1428 41.373 50.7329 41.9163Z"
        fill="#EA1D2C" />
</svg>